<svg width="137" height="24" viewBox="0 0 137 24" fill="none" xmlns="http://www.w3.org/2000/svg">
<g clip-path="url(#clip0_23_33)">
<path d="M12.9603 2C15.6773 2 16.0163 2.01 17.0823 2.06C18.1473 2.11 18.8723 2.277 19.5103 2.525C20.1703 2.779 20.7263 3.123 21.2823 3.678C21.7908 4.1779 22.1843 4.78259 22.4353 5.45C22.6823 6.087 22.8503 6.813 22.9003 7.878C22.9473 8.944 22.9603 9.283 22.9603 12C22.9603 14.717 22.9503 15.056 22.9003 16.122C22.8503 17.187 22.6823 17.912 22.4353 18.55C22.185 19.2178 21.7914 19.8226 21.2823 20.322C20.7823 20.8303 20.1776 21.2238 19.5103 21.475C18.8733 21.722 18.1473 21.89 17.0823 21.94C16.0163 21.987 15.6773 22 12.9603 22C10.2433 22 9.90433 21.99 8.83833 21.94C7.77333 21.89 7.04833 21.722 6.41033 21.475C5.74265 21.2245 5.13785 20.8309 4.63833 20.322C4.12973 19.8222 3.73626 19.2175 3.48533 18.55C3.23733 17.913 3.07033 17.187 3.02033 16.122C2.97333 15.056 2.96033 14.717 2.96033 12C2.96033 9.283 2.97033 8.944 3.02033 7.878C3.07033 6.812 3.23733 6.088 3.48533 5.45C3.73556 4.78218 4.12913 4.17732 4.63833 3.678C5.138 3.16923 5.74276 2.77573 6.41033 2.525C7.04833 2.277 7.77233 2.11 8.83833 2.06C9.90433 2.013 10.2433 2 12.9603 2ZM12.9603 7C11.6342 7 10.3625 7.52678 9.42479 8.46447C8.48711 9.40215 7.96033 10.6739 7.96033 12C7.96033 13.3261 8.48711 14.5979 9.42479 15.5355C10.3625 16.4732 11.6342 17 12.9603 17C14.2864 17 15.5582 16.4732 16.4959 15.5355C17.4335 14.5979 17.9603 13.3261 17.9603 12C17.9603 10.6739 17.4335 9.40215 16.4959 8.46447C15.5582 7.52678 14.2864 7 12.9603 7ZM19.4603 6.75C19.4603 6.41848 19.3286 6.10054 19.0942 5.86612C18.8598 5.6317 18.5418 5.5 18.2103 5.5C17.8788 5.5 17.5609 5.6317 17.3264 5.86612C17.092 6.10054 16.9603 6.41848 16.9603 6.75C16.9603 7.08152 17.092 7.39946 17.3264 7.63388C17.5609 7.8683 17.8788 8 18.2103 8C18.5418 8 18.8598 7.8683 19.0942 7.63388C19.3286 7.39946 19.4603 7.08152 19.4603 6.75ZM12.9603 9C13.756 9 14.519 9.31607 15.0816 9.87868C15.6443 10.4413 15.9603 11.2044 15.9603 12C15.9603 12.7956 15.6443 13.5587 15.0816 14.1213C14.519 14.6839 13.756 15 12.9603 15C12.1647 15 11.4016 14.6839 10.839 14.1213C10.2764 13.5587 9.96033 12.7956 9.96033 12C9.96033 11.2044 10.2764 10.4413 10.839 9.87868C11.4016 9.31607 12.1647 9 12.9603 9Z" fill="#393939"/>
<path d="M12.9603 2C15.6773 2 16.0163 2.01 17.0823 2.06C18.1473 2.11 18.8723 2.277 19.5103 2.525C20.1703 2.779 20.7263 3.123 21.2823 3.678C21.7908 4.1779 22.1843 4.78259 22.4353 5.45C22.6823 6.087 22.8503 6.813 22.9003 7.878C22.9473 8.944 22.9603 9.283 22.9603 12C22.9603 14.717 22.9503 15.056 22.9003 16.122C22.8503 17.187 22.6823 17.912 22.4353 18.55C22.185 19.2178 21.7914 19.8226 21.2823 20.322C20.7823 20.8303 20.1776 21.2238 19.5103 21.475C18.8733 21.722 18.1473 21.89 17.0823 21.94C16.0163 21.987 15.6773 22 12.9603 22C10.2433 22 9.90433 21.99 8.83833 21.94C7.77333 21.89 7.04833 21.722 6.41033 21.475C5.74265 21.2245 5.13785 20.8309 4.63833 20.322C4.12973 19.8222 3.73626 19.2175 3.48533 18.55C3.23733 17.913 3.07033 17.187 3.02033 16.122C2.97333 15.056 2.96033 14.717 2.96033 12C2.96033 9.283 2.97033 8.944 3.02033 7.878C3.07033 6.812 3.23733 6.088 3.48533 5.45C3.73556 4.78218 4.12913 4.17732 4.63833 3.678C5.138 3.16923 5.74276 2.77573 6.41033 2.525C7.04833 2.277 7.77233 2.11 8.83833 2.06C9.90433 2.013 10.2433 2 12.9603 2ZM12.9603 7C11.6342 7 10.3625 7.52678 9.42479 8.46447C8.48711 9.40215 7.96033 10.6739 7.96033 12C7.96033 13.3261 8.48711 14.5979 9.42479 15.5355C10.3625 16.4732 11.6342 17 12.9603 17C14.2864 17 15.5582 16.4732 16.4959 15.5355C17.4335 14.5979 17.9603 13.3261 17.9603 12C17.9603 10.6739 17.4335 9.40215 16.4959 8.46447C15.5582 7.52678 14.2864 7 12.9603 7ZM19.4603 6.75C19.4603 6.41848 19.3286 6.10054 19.0942 5.86612C18.8598 5.6317 18.5418 5.5 18.2103 5.5C17.8788 5.5 17.5609 5.6317 17.3264 5.86612C17.092 6.10054 16.9603 6.41848 16.9603 6.75C16.9603 7.08152 17.092 7.39946 17.3264 7.63388C17.5609 7.8683 17.8788 8 18.2103 8C18.5418 8 18.8598 7.8683 19.0942 7.63388C19.3286 7.39946 19.4603 7.08152 19.4603 6.75ZM12.9603 9C13.756 9 14.519 9.31607 15.0816 9.87868C15.6443 10.4413 15.9603 11.2044 15.9603 12C15.9603 12.7956 15.6443 13.5587 15.0816 14.1213C14.519 14.6839 13.756 15 12.9603 15C12.1647 15 11.4016 14.6839 10.839 14.1213C10.2764 13.5587 9.96033 12.7956 9.96033 12C9.96033 11.2044 10.2764 10.4413 10.839 9.87868C11.4016 9.31607 12.1647 9 12.9603 9Z" fill="black" fill-opacity="0.2"/>
</g>
<g clip-path="url(#clip1_23_33)">
<path d="M75.2953 18.339H72.6303V14.162C72.6303 13.166 72.6103 11.884 71.2403 11.884C69.8513 11.884 69.6393 12.968 69.6393 14.089V18.339H66.9733V9.75H69.5333V10.92H69.5683C69.9263 10.246 70.7963 9.533 72.0963 9.533C74.7963 9.533 75.2963 11.311 75.2963 13.624V18.339H75.2953ZM63.9633 8.575C63.7599 8.57526 63.5584 8.53537 63.3704 8.45761C63.1824 8.37984 63.0116 8.26574 62.8678 8.12184C62.724 7.97793 62.61 7.80706 62.5323 7.61901C62.4547 7.43097 62.4149 7.22944 62.4153 7.026C62.4155 6.71983 62.5065 6.4206 62.6768 6.16615C62.847 5.91169 63.0889 5.71343 63.3719 5.59645C63.6548 5.47947 63.9661 5.44902 64.2663 5.50894C64.5666 5.56886 64.8423 5.71648 65.0586 5.93311C65.275 6.14974 65.4222 6.42566 65.4818 6.72598C65.5413 7.0263 65.5105 7.33753 65.3931 7.62032C65.2758 7.9031 65.0772 8.14474 64.8225 8.31467C64.5678 8.4846 64.2685 8.5752 63.9623 8.575H63.9633ZM65.2993 18.339H62.6263V9.75H65.3003V18.339H65.2993ZM76.6303 3H61.2893C60.5533 3 59.9603 3.58 59.9603 4.297V19.703C59.9603 20.42 60.5543 21 61.2883 21H76.6263C77.3603 21 77.9603 20.42 77.9603 19.703V4.297C77.9603 3.58 77.3603 3 76.6263 3H76.6293H76.6303Z" fill="#393939"/>
<path d="M75.2953 18.339H72.6303V14.162C72.6303 13.166 72.6103 11.884 71.2403 11.884C69.8513 11.884 69.6393 12.968 69.6393 14.089V18.339H66.9733V9.75H69.5333V10.92H69.5683C69.9263 10.246 70.7963 9.533 72.0963 9.533C74.7963 9.533 75.2963 11.311 75.2963 13.624V18.339H75.2953ZM63.9633 8.575C63.7599 8.57526 63.5584 8.53537 63.3704 8.45761C63.1824 8.37984 63.0116 8.26574 62.8678 8.12184C62.724 7.97793 62.61 7.80706 62.5323 7.61901C62.4547 7.43097 62.4149 7.22944 62.4153 7.026C62.4155 6.71983 62.5065 6.4206 62.6768 6.16615C62.847 5.91169 63.0889 5.71343 63.3719 5.59645C63.6548 5.47947 63.9661 5.44902 64.2663 5.50894C64.5666 5.56886 64.8423 5.71648 65.0586 5.93311C65.275 6.14974 65.4222 6.42566 65.4818 6.72598C65.5413 7.0263 65.5105 7.33753 65.3931 7.62032C65.2758 7.9031 65.0772 8.14474 64.8225 8.31467C64.5678 8.4846 64.2685 8.5752 63.9623 8.575H63.9633ZM65.2993 18.339H62.6263V9.75H65.3003V18.339H65.2993ZM76.6303 3H61.2893C60.5533 3 59.9603 3.58 59.9603 4.297V19.703C59.9603 20.42 60.5543 21 61.2883 21H76.6263C77.3603 21 77.9603 20.42 77.9603 19.703V4.297C77.9603 3.58 77.3603 3 76.6263 3H76.6293H76.6303Z" fill="black" fill-opacity="0.2"/>
</g>
<g clip-path="url(#clip2_23_33)">
<path d="M124.96 2C119.437 2 114.96 6.477 114.96 12C114.96 16.991 118.617 21.128 123.398 21.879V14.89H120.858V12H123.398V9.797C123.398 7.291 124.89 5.907 127.175 5.907C128.269 5.907 129.413 6.102 129.413 6.102V8.562H128.153C126.91 8.562 126.523 9.333 126.523 10.124V12H129.296L128.853 14.89H126.523V21.879C131.303 21.129 134.96 16.99 134.96 12C134.96 6.477 130.483 2 124.96 2Z" fill="#393939"/>
<path d="M124.96 2C119.437 2 114.96 6.477 114.96 12C114.96 16.991 118.617 21.128 123.398 21.879V14.89H120.858V12H123.398V9.797C123.398 7.291 124.89 5.907 127.175 5.907C128.269 5.907 129.413 6.102 129.413 6.102V8.562H128.153C126.91 8.562 126.523 9.333 126.523 10.124V12H129.296L128.853 14.89H126.523V21.879C131.303 21.129 134.96 16.99 134.96 12C134.96 6.477 130.483 2 124.96 2Z" fill="black" fill-opacity="0.2"/>
</g>
<defs>
<clipPath id="clip0_23_33">
<rect width="24" height="24" fill="white" transform="translate(0.960327)"/>
</clipPath>
<clipPath id="clip1_23_33">
<rect width="24" height="24" fill="white" transform="translate(56.9603)"/>
</clipPath>
<clipPath id="clip2_23_33">
<rect width="24" height="24" fill="white" transform="translate(112.96)"/>
</clipPath>
</defs>
</svg>
