<svg width="1440" height="755" viewBox="0 0 1440 755" fill="none" xmlns="http://www.w3.org/2000/svg">
<path d="M0 0H1440V755H0V0Z" fill="#F8F8F8"/>
<path d="M1440.11 693.351L1213.35 410.595C1206.61 402.195 1210.65 389.643 1221.03 386.758L1440.11 325.851V693.351Z" fill="#EEEEEE"/>
<path d="M1440.5 755V601L1354 716L1440.5 755Z" fill="#DB705B"/>
<rect x="199.389" y="494.516" width="96.5399" height="96.5399" transform="rotate(43.496 199.389 494.516)" fill="#DB705B"/>
<rect x="199.389" y="494.516" width="96.5399" height="96.5399" transform="rotate(43.496 199.389 494.516)" fill="#EEEEEE"/>
<g style="mix-blend-mode:multiply" clip-path="url(#clip0_322_53)">
<g style="mix-blend-mode:multiply">
<path d="M1439.48 3L1229 3.23404L1229.19 3.5539C1269.52 79.6252 1320.09 140.031 1394.81 179.49C1407.67 186.284 1421.23 191.768 1435.12 196.292L1439.75 197.8" fill="#393939"/>
<path d="M1439.48 3L1229 3.23404L1229.19 3.5539C1269.52 79.6252 1320.09 140.031 1394.81 179.49C1407.67 186.284 1421.23 191.768 1435.12 196.292L1439.75 197.8" fill="#EEEEEE"/>
</g>
<g clip-path="url(#clip1_322_53)">
<path d="M1440.75 6.27927C1381.85 6.27927 1334.11 49.1353 1334.11 102C1334.11 154.865 1381.85 197.721 1440.75 197.721L1440.75 6.27927Z" fill="#EEA869"/>
</g>
</g>
<path d="M104.5 381.31L0.000142753 582.31L0 301.31L104.5 381.31Z" fill="#6FC5AA"/>
<path d="M492.215 65.8544L430.215 3.8544H645.715L492.215 65.8544Z" fill="#2F78AB"/>
<path d="M281.791 227.557L0 198.391V2.89084H158L295.715 204.167C302.93 214.711 294.5 228.873 281.791 227.557Z" fill="#EEEEEE"/>
<defs>
<clipPath id="clip0_322_53">
<rect width="210.484" height="194.8" fill="white" transform="matrix(-0.999999 0.00111189 -0.00138018 -0.999999 1439.75 197.8)"/>
</clipPath>
<clipPath id="clip1_322_53">
<rect width="108" height="191.442" fill="white" transform="translate(1332.75 6.27927)"/>
</clipPath>
</defs>
</svg>
