<svg width="21" height="21" viewBox="0 0 21 21" fill="none" xmlns="http://www.w3.org/2000/svg">
<path d="M16.4375 18.1339C16.4375 14.8547 13.7792 12.1964 10.5 12.1964C7.2208 12.1964 4.5625 14.8547 4.5625 18.1339M20 10.5C20 15.7467 15.7467 20 10.5 20C5.25329 20 1 15.7467 1 10.5C1 5.25329 5.25329 1 10.5 1C15.7467 1 20 5.25329 20 10.5ZM13.2143 7.95536C13.2143 9.45442 11.9991 10.6696 10.5 10.6696C9.00094 10.6696 7.78571 9.45442 7.78571 7.95536C7.78571 6.4563 9.00094 5.24107 10.5 5.24107C11.9991 5.24107 13.2143 6.4563 13.2143 7.95536Z" stroke="#393939" stroke-width="2"/>
</svg>
