<svg width="157" height="41" viewBox="0 0 157 41" fill="none" xmlns="http://www.w3.org/2000/svg">
<g clip-path="url(#clip0_3_59)">
<path d="M46.1715 3L46.0447 3.3512C45.6645 4.40093 45.2035 5.42364 44.6351 6.39618C41.324 12.0423 36.2615 15.863 29.8891 18.9042L29.8622 18.9158V3H46.1715Z" fill="#EEA869"/>
<path d="M29.8622 22.0804L29.989 22.4316C30.3693 23.4813 30.8302 24.504 31.3987 25.4766C34.7097 31.1227 39.7722 34.9434 46.1446 37.9846L46.1715 37.9961V22.0804H29.8622Z" fill="#2F78AB"/>
<path d="M26.3092 18.9196L26.1825 18.5684C25.8022 17.5187 25.3413 16.496 24.7728 15.5234C21.4618 9.87727 16.3992 6.05657 10.0269 3.01158L10 3V18.9196H26.3092Z" fill="#DB705B"/>
<path d="M10 38L10.1268 37.6488C10.507 36.5991 10.968 35.5763 11.5364 34.6038C14.8474 28.9576 19.91 25.1369 26.2824 22.0958L26.3092 22.0842V38.0038H10V38Z" fill="#4AC8A9"/>
<path d="M60.6524 31.3041V14.2692H56.7652V11.6217H68.9376V14.2692H65.1119V31.3002H60.6524V31.3041Z" fill="#393939"/>
<path d="M72.8248 31.3041V11.6217H83.0689V14.1495H77.2843V19.8111H81.8321V22.3119H77.2843V28.8226H83.1304V31.3002H72.8248V31.3041Z" fill="#393939"/>
<path d="M93.5244 31.5704C92.0571 31.5704 90.8318 31.3388 89.8484 30.8796C88.8651 30.4165 88.12 29.7411 87.6206 28.8496C87.1174 27.9581 86.837 26.8659 86.7756 25.5692L90.6013 24.9633C90.6397 25.7236 90.7549 26.3951 90.947 26.9778C91.139 27.5606 91.4271 28.0121 91.8228 28.3247C92.2146 28.6412 92.7331 28.7994 93.3746 28.7994C94.0967 28.7994 94.6114 28.6258 94.911 28.2784C95.2106 27.9311 95.3642 27.4873 95.3642 26.9547C95.3642 26.0979 95.1223 25.3917 94.6421 24.8398C94.162 24.2879 93.5167 23.7399 92.7139 23.188L89.641 20.9998C88.7768 20.4016 88.0892 19.7339 87.5784 18.9968C87.0675 18.2597 86.8101 17.3489 86.8101 16.2644C86.8101 14.7091 87.3709 13.5127 88.4964 12.6675C89.6218 11.8262 91.1583 11.4055 93.1057 11.4055C94.2503 11.4055 95.2029 11.5483 95.9673 11.8301C96.7317 12.1118 97.3386 12.5054 97.7918 13.0072C98.2451 13.5089 98.5792 14.08 98.802 14.7207C99.0248 15.3613 99.1631 16.0367 99.2245 16.7507L95.4295 17.2833C95.3873 16.6696 95.3028 16.1178 95.1722 15.6315C95.0416 15.1452 94.8111 14.767 94.4808 14.4891C94.1505 14.2151 93.6626 14.0762 93.0212 14.0762C92.3567 14.0762 91.8496 14.2499 91.5001 14.5972C91.1467 14.9445 90.9739 15.3806 90.9739 15.8978C90.9739 16.5616 91.1429 17.1096 91.4847 17.538C91.8266 17.9664 92.3183 18.4102 92.9597 18.8617L96.0019 21.0229C97.0044 21.7022 97.8648 22.501 98.5792 23.4157C99.2937 24.3303 99.647 25.438 99.647 26.7308C99.647 27.6686 99.3897 28.5061 98.8788 29.2317C98.368 29.9611 97.6535 30.5322 96.7394 30.9452C95.8175 31.362 94.7497 31.5704 93.5244 31.5704Z" fill="#393939"/>
<path d="M106.357 31.3041V14.2692H102.47V11.6217H114.643V14.2692H110.817V31.3002H106.357V31.3041Z" fill="#393939"/>
<path d="M118.53 31.3041V11.6217H128.774V14.1495H122.989V19.8111H127.537V22.3119H122.989V28.8226H128.835V31.3002H118.53V31.3041Z" fill="#393939"/>
<path d="M133.084 31.3041V11.6217H138.93C140.578 11.6217 141.968 11.7799 143.101 12.0964C144.234 12.4128 145.099 12.9493 145.694 13.7134C146.286 14.4737 146.581 15.5118 146.581 16.824C146.581 17.619 146.489 18.3291 146.309 18.9621C146.128 19.595 145.821 20.1314 145.391 20.5791C144.957 21.0229 144.361 21.3703 143.597 21.6134L147 31.308H142.54L139.587 22.2926H137.539V31.308H133.084V31.3041ZM137.543 20.0272H138.93C139.794 20.0272 140.482 19.9269 140.993 19.7223C141.503 19.5217 141.872 19.1975 142.091 18.7498C142.314 18.306 142.421 17.7348 142.421 17.0363C142.421 16.0483 142.195 15.3073 141.745 14.8133C141.292 14.3193 140.436 14.0723 139.168 14.0723H137.539V20.0272H137.543Z" fill="#393939"/>
</g>
<defs>
<clipPath id="clip0_3_59">
<rect width="137" height="35" fill="white" transform="translate(10 3)"/>
</clipPath>
</defs>
</svg>
